{"title":"Skyfall 2012 1080p 5.1 X264 the.HH","uid":8118121,"size":3234115956,"categoryP":"video","categoryS":"hd___movies","magnet":"?xt=urn:btih:7b8d987771132a36932682d00d427fd0db601638&amp;dn=Skyfall+2012+1080p+5.1+X264+the.HH&amp;tr=udp%3A%2F%2Ftracker.openbittorrent.com%3A80&amp;tr=udp%3A%2F%2Fopen.demonii.com%3A1337&amp;tr=udp%3A%2F%2Ftracker.coppersurfer.tk%3A6969&amp;tr=udp%3A%2F%2Fexodus.desync.com%3A6969","seeders":1,"leechers":0,"uploader":"the.HH","files":10,"time":1360336797,"description":"General\nComplete name : F:Skyfall 2012 1080p 5.1 X264 the.HHSkyfall 2012 1080p 5.1 X264 the.HH.mp4\nFormat : MPEG-4\nFormat profile : Base Media\nCodec ID : isom\nFile size : 3.00 GiB\nDuration : 2h 23mn\nOverall bit rate mode : Variable\nOverall bit rate : 3 001 Kbps\n\n\nVideo\nID : 1\nFormat : AVC\nFormat/Info : Advanced Video Codec\nFormat profile : &lt;a class=&quot;__cf_email__&quot; href=&quot;/cdn-cgi/l/email-protection&quot; data-cfemail=&quot;347c5d535c7478001a04&quot;&gt;[email&amp;#160;protected]&lt;/a&gt;&lt;script cf-hash='f9e31' type=&quot;text/javascript&quot;&gt;\n/* &lt;![CDATA[ */!function(){try{var t=&quot;currentScript&quot;in document?document.currentScript:function(){for(var t=document.getElementsByTagName(&quot;script&quot;),e=t.length;e--;)if(t[e].getAttribute(&quot;cf-hash&quot;))return t[e]}();if(t&amp;&amp;t.previousSibling){var e,r,n,i,c=t.previousSibling,a=c.getAttribute(&quot;data-cfemail&quot;);if(a){for(e=&quot;&quot;,r=parseInt(a.substr(0,2),16),n=2;a.length-n;n+=2)i=parseInt(a.substr(n,2),16)^r,e+=String.fromCharCode(i);e=document.createTextNode(e),c.parentNode.replaceChild(e,c)}}}catch(u){}}();/* ]]&gt; */&lt;/script&gt;\nFormat settings, CABAC : Yes\nFormat settings, ReFrames : 4 frames\nCodec ID : avc1\nCodec ID/Info : Advanced Video Coding\nDuration : 2h 23mn\nBit rate : 2 630 Kbps\nMaximum bit rate : 29.4 Mbps\nWidth : 1 920 pixels\nHeight : 800 pixels\nDisplay aspect ratio : 2.40:1\nFrame rate mode : Constant\nFrame rate : 23.976 fps\nColor space : YUV\nChroma subsampling : 4:2:0\nBit depth : 8 bits\nScan type : Progressive\nBits/(Pixel*Frame) : 0.071\nStream size : 2.63 GiB (88%)\n\nAudio\nID : 2\nFormat : AAC\nFormat/Info : Advanced Audio Codec\nFormat profile : LC\nCodec ID : 40\nDuration : 2h 23mn\nBit rate mode : Variable\nBit rate : 368 Kbps\nMaximum bit rate : 453 Kbps\nChannel(s) : 6 channels\nChannel positions : Front: L C R, Side: L R, LFE\nSampling rate : 48.0 KHz\nCompression mode : Lossy\nStream size : 376 MiB (12%)\nHelp this Torrent to LIVE, SEED till you blead","torrent":{"xt":"urn:btih:7b8d987771132a36932682d00d427fd0db601638","amp;dn":"Skyfall+2012+1080p+5.1+X264+the.HH","amp;tr":["udp%3A%2F%2Ftracker.openbittorrent.com%3A80","udp%3A%2F%2Fopen.demonii.com%3A1337","udp%3A%2F%2Ftracker.coppersurfer.tk%3A6969","udp%3A%2F%2Fexodus.desync.com%3A6969"],"infoHash":"7b8d987771132a36932682d00d427fd0db601638","infoHashBuffer":{"type":"Buffer","data":[123,141,152,119,113,19,42,54,147,38,130,208,13,66,127,208,219,96,22,56]},"announce":[],"urlList":[]}}